# xmcd
#
# Track frame offsets: 
#        150
#        14654
#        22999
#        32046
#        41843
#        53725
#        64345
#        71622
#        84663
#        93554
#        105821
#        112950
#        123076
#        133214
#        147183
#        156293
#        160657
#        167838
#        182342
#        190687
#        199734
#        209531
#        221413
#        232033
#        239310
#        252351
#        261242
#        273509
#        280638
#        290764
#        304733
#        313844
#        318208
#
# Disc length: 4328 seconds
#
# Revision: 1
# Processed by: cddbd v1.5.2PL0 Copyright (c) Steve Scherf et al.
# Submitted via: ExactAudioCopy v1.1
#
DISCID=e110e621
DTITLE=Music K-8 - Vol 21 No 4
DYEAR=1900
DGENRE=
TTITLE0=We Believe in Music
TTITLE1=Waiting for the Spring
TTITLE2=Everyone is Irish
TTITLE3=Doggies Should Not Eatch Chocolate Bunnies
TTITLE4=Our Earth, Our Home
TTITLE5=My Hat It Has Three Corners
TTITLE6=My Hat It Has Five Corners
TTITLE7=Tenting on the Old Campground
TTITLE8=I Can Do That!
TTITLE9=That's Not Me
TTITLE10=High Five
TTITLE11=I Can Live With That
TTITLE12=I Can Live With That unison
TTITLE13=The Krebbek Giant's Dance
TTITLE14=The Star Spangled Banner
TTITLE15=Brrr! It's Cold
TTITLE16=Don't You Think It's Chilly?
TTITLE17=We Belive in Music Instr
TTITLE18=Waiting for the Spring Instr
TTITLE19=Everyone Is Irish Instr
TTITLE20=Doggies Should Not Eat Chocolate Bunnies Instr
TTITLE21=Our Earth, Our Home Instr
TTITLE22=My Hat It Has Three Corners Instr
TTITLE23=My Hat It Has Five Corners Instr
TTITLE24=Tenting on the Old Campground Instr
TTITLE25=I Can Do That! Instr
TTITLE26=That's Not Me Instr
TTITLE27=High Five Instr
TTITLE28=I Can Live With That Instr
TTITLE29=The Krebbel Giant Dance Instr
TTITLE30=The Star Spangled Banner Instr
TTITLE31=Brrr! It's Cold Instr
TTITLE32=Don't You Think It's Chilly? Instr
EXTD=
EXTT0=
EXTT1=
EXTT2=
EXTT3=
EXTT4=
EXTT5=
EXTT6=
EXTT7=
EXTT8=
EXTT9=
EXTT10=
EXTT11=
EXTT12=
EXTT13=
EXTT14=
EXTT15=
EXTT16=
EXTT17=
EXTT18=
EXTT19=
EXTT20=
EXTT21=
EXTT22=
EXTT23=
EXTT24=
EXTT25=
EXTT26=
EXTT27=
EXTT28=
EXTT29=
EXTT30=
EXTT31=
EXTT32=
PLAYORDER=
